<svg enable-background="new 0 0 28.188 28.195" height="28.195" viewBox="0 0 28.188 28.195" width="28.188" xmlns="http://www.w3.org/2000/svg"><path d="m28.187 7.195c-.001-.867-.076-1.728-.282-2.574-.372-1.536-1.247-2.713-2.561-3.573-.674-.441-1.414-.713-2.204-.855-.608-.109-1.221-.159-1.838-.177-.048-.002-.098-.009-.146-.014h-14.124c-.178.01-.356.02-.534.03-.878.05-1.75.146-2.575.472-1.572.622-2.704 1.706-3.368 3.264-.225.528-.343 1.088-.426 1.655-.067.46-.105.922-.118 1.387-.001.036-.009.072-.012.108v14.359c.01.166.019.332.03.498.059.957.181 1.908.584 2.787.764 1.668 2.041 2.764 3.799 3.291.495.149 1.005.22 1.519.268.651.062 1.304.072 1.957.072 4.319 0 8.638 0 12.957-.002.617 0 1.231-.039 1.844-.116.967-.124 1.876-.412 2.697-.952.988-.65 1.729-1.512 2.208-2.594.219-.495.344-1.021.434-1.555.134-.793.163-1.595.162-2.397-.002-4.461.001-8.921-.003-13.382m-7.545 4.687c0 2.237.001 4.474-.001 6.71 0 .49-.067.971-.285 1.417-.339.694-.894 1.13-1.63 1.339-.41.117-.829.184-1.256.203-1.118.053-2.084-.705-2.284-1.804-.166-.907.268-1.907 1.221-2.374.38-.188.786-.293 1.196-.381.444-.096.89-.18 1.332-.282.322-.074.537-.271.6-.606.015-.074.021-.151.021-.227.001-2.132.001-4.263-.001-6.394 0-.073-.012-.147-.03-.217-.046-.177-.175-.285-.357-.275-.188.011-.373.041-.558.078-.893.176-1.785.357-2.677.537-.911.183-1.822.368-2.734.552-.538.109-1.076.217-1.614.326-.019.004-.038.01-.056.015-.325.09-.443.239-.458.575-.002.051-.001.102-.001.154-.001 3.056 0 6.113-.002 9.168 0 .494-.055.982-.253 1.441-.327.754-.905 1.223-1.685 1.45-.412.119-.835.187-1.263.202-1.126.042-2.061-.706-2.254-1.814-.167-.955.27-1.98 1.354-2.439.419-.176.859-.273 1.301-.365.337-.071.675-.135 1.011-.207.449-.098.684-.38.703-.839.002-.06.001-.117.001-.177 0-3.477 0-6.955.002-10.432 0-.145.015-.294.049-.435.082-.335.321-.526.641-.609.3-.078.605-.132.909-.194.861-.174 1.722-.347 2.583-.52.89-.18 1.779-.359 2.669-.539.786-.159 1.572-.32 2.36-.475.258-.051.52-.103.78-.124.364-.029.614.2.651.566.009.087.014.175.014.263.002 2.245.002 4.489.001 6.733z"/></svg>