<svg height="100" viewBox="0 0 100 100" width="100" xmlns="http://www.w3.org/2000/svg" xmlns:xlink="http://www.w3.org/1999/xlink"><mask id="a" fill="#fff"><path d="m0 0h100v99.5098039h-100z" fill="#fff" fill-rule="evenodd"/></mask><path d="m100 50.0589711c0-27.6468267-22.3857422-50.0589711-50-50.0589711s-50 22.4121444-50 50.0589711c0 24.9858795 18.2842773 45.6954323 42.1875 49.4508328v-34.9806615h-12.6953125v-14.4701713h12.6953125v-11.0286171c0-12.5460296 7.4646484-19.4760684 18.8857422-19.4760684 5.4704101 0 11.1923828.9777143 11.1923828.9777143v12.3191999h-6.3048828c-6.2112305 0-8.1482422 3.8587449-8.1482422 7.81751v9.3902613h13.8671875l-2.2167969 14.4701713h-11.6503906v34.9806615c23.9032227-3.7554005 42.1875-24.4649533 42.1875-49.4508328" fill="#0a0b09" fill-rule="evenodd" mask="url(#a)"/></svg>