<svg fill="none" height="24" viewBox="0 0 24 24" width="24" xmlns="http://www.w3.org/2000/svg"><path d="m23.9974 6.12366c-.0008-.73811-.0647-1.47111-.2401-2.19134-.3166-1.30765-1.0616-2.30967-2.1802-3.041823-.5738-.375439-1.2038-.607002-1.8764-.727892-.5176-.0927955-1.0394-.1353623-1.5647-.1506863-.0409-.0017027-.0834-.00766202-.1243-.0119187h-12.02426c-.15154.00851335-.30308.0170267-.45462.0255401-.74747.0425667-1.48983.1242949-2.19218.4018299-1.3383.529531-2.30201 1.45238-2.867298 2.77876-.19155.4495-.292008.92625-.362668 1.40896-.0570399.39161-.0893906.78493-.100458 1.1808-.00085132.03065-.007662.0613-.010216.09195v12.22436c.00851335.1413.0161754.2826.02554.4239.0502288.8148.154092 1.6244.49718 2.3727.65042 1.42 1.73757 2.3531 3.23422 2.8017.42141.1269.85559.1873 1.29318.2282.55422.0528 1.11014.0613 1.66606.0613 3.67692 0 7.35382 0 11.03072-.0017.5253 0 1.048-.0332 1.5699-.0988.8232-.1055 1.5971-.3507 2.296-.8104.8412-.5534 1.472-1.2873 1.8798-2.2084.1864-.4214.2928-.8692.3695-1.3238.114-.6751.1387-1.3579.1379-2.0407-.0017-3.7978.0008-7.59474-.0026-11.39254zm-6.4233 3.99024c0 1.9044.0009 3.8088-.0008 5.7124 0 .4172-.0571.8267-.2427 1.2064-.2886.5908-.7611.962-1.3877 1.1399-.349.0996-.7057.1567-1.0692.1728-.9518.0452-1.7742-.6002-1.9445-1.5358-.1413-.7721.2282-1.6235 1.0395-2.0211.3235-.16.6692-.2494 1.0182-.3243.378-.0817.7577-.1533 1.134-.2401.2741-.063.4571-.2307.5108-.5159.0127-.063.0179-.1285.0179-.1932.0008-1.8151.0008-3.62929-.0009-5.44349 0-.06215-.0102-.12514-.0255-.18474-.0392-.15068-.149-.24263-.304-.23411-.16.00936-.3175.0349-.475.0664-.7602.14983-1.5196.30393-2.279.45717-.7756.15579-1.5512.31329-2.3276.46993-.458.0928-.916.18474-1.37403.27754-.01618.0034-.03236.00851-.04768.01277-.27668.07662-.37714.20347-.38991.48952-.0017.04342-.00085.08683-.00085.1311-.00085 2.60171 0 5.20421-.0017 7.80501 0 .4206-.04683.836-.21539 1.2268-.27839.6419-.77046 1.0412-1.4345 1.2344-.35075.1014-.71087.1592-1.07524.172-.9586.0358-1.7546-.601-1.91891-1.5443-.14217-.813.22986-1.6856 1.15271-2.0764.35671-.1498.7313-.2324 1.10759-.3107.2869-.0605.57465-.115.8607-.1763.38225-.0834.58231-.3235.59849-.7142.0017-.0511.00085-.0997.00085-.1507 0-2.9601 0-5.92107.0017-8.88117 0-.12344.01277-.25029.04172-.37033.06981-.28519.27327-.4478.5457-.51846.2554-.0664.51506-.11238.77386-.16516.73299-.14813 1.46599-.29541 2.19899-.44269.7577-.15324 1.5145-.30563 2.2722-.45887.6692-.13537 1.3383-.27243 2.0092-.40439.2196-.04342.4427-.08768.664-.10556.3099-.02469.5227.17026.5542.48185.0077.07407.012.14899.012.2239.0017 1.91125.0017 3.82165.0008 5.73208z" fill="#fff"/></svg>