<svg width="28" height="28" viewBox="0 0 28 28" fill="none" xmlns="http://www.w3.org/2000/svg">
<g filter="url(#filter0_d)">
<path fill-rule="evenodd" clip-rule="evenodd" d="M21.08 10.639C17.2237 8.3489 10.8628 8.13833 7.18153 9.25561C6.59025 9.43504 5.9651 9.10133 5.78596 8.51018C5.60682 7.91861 5.94025 7.2939 6.53182 7.11418C10.7577 5.83147 17.7827 6.07918 22.2221 8.71447C22.7538 9.03018 22.9282 9.7169 22.6131 10.2478C22.2977 10.7795 21.6104 10.9548 21.08 10.639ZM20.9537 14.031C20.6831 14.47 20.1091 14.6078 19.6707 14.3382C16.4557 12.362 11.5532 11.7895 7.74968 12.944C7.25639 13.093 6.73553 12.815 6.58568 12.3226C6.43711 11.8295 6.71525 11.3095 7.20768 11.1595C11.5527 9.8409 16.9542 10.4795 20.6468 12.7488C21.0852 13.0188 21.2232 13.593 20.9537 14.031ZM19.4898 17.2886C19.2748 17.6412 18.8158 17.7516 18.4645 17.5368C15.6552 15.8198 12.1192 15.432 7.95496 16.3832C7.55368 16.4752 7.15368 16.2238 7.0621 15.8225C6.97025 15.4213 7.22082 15.0213 7.62296 14.9298C12.1801 13.888 16.0891 14.3363 19.2424 16.2632C19.594 16.4779 19.7047 16.9372 19.4898 17.2886ZM14.0032 0.0333252C7.39625 0.0333252 2.03996 5.38947 2.03996 11.9965C2.03996 18.6042 7.39625 23.9599 14.0032 23.9599C20.6105 23.9599 25.9665 18.6042 25.9665 11.9965C25.9665 5.38947 20.6105 0.0333252 14.0032 0.0333252Z" fill="#FCFCFC"/>
</g>
<defs>
<filter id="filter0_d" x="0.0399628" y="0.0333252" width="27.9266" height="27.9266" filterUnits="userSpaceOnUse" color-interpolation-filters="sRGB">
<feFlood flood-opacity="0" result="BackgroundImageFix"/>
<feColorMatrix in="SourceAlpha" type="matrix" values="0 0 0 0 0 0 0 0 0 0 0 0 0 0 0 0 0 0 127 0"/>
<feOffset dy="2"/>
<feGaussianBlur stdDeviation="1"/>
<feColorMatrix type="matrix" values="0 0 0 0 0 0 0 0 0 0 0 0 0 0 0 0 0 0 0.25 0"/>
<feBlend mode="normal" in2="BackgroundImageFix" result="effect1_dropShadow"/>
<feBlend mode="normal" in="SourceGraphic" in2="effect1_dropShadow" result="shape"/>
</filter>
</defs>
</svg>
