<svg width="25" height="27" viewBox="0 0 25 27" fill="none" xmlns="http://www.w3.org/2000/svg">
<g filter="url(#filter0_d)">
<path fill-rule="evenodd" clip-rule="evenodd" d="M12.0015 0C8.74204 0 8.33334 0.0138155 7.05326 0.0722219C5.77584 0.130485 4.90342 0.333383 4.14004 0.630083C3.35084 0.93674 2.68155 1.34711 2.0143 2.0143C1.34711 2.68155 0.93674 3.35084 0.630083 4.14004C0.333383 4.90342 0.130485 5.77584 0.0722219 7.05326C0.0138155 8.33334 0 8.74204 0 12.0015C0 15.2608 0.0138155 15.6695 0.0722219 16.9496C0.130485 18.227 0.333383 19.0994 0.630083 19.8628C0.93674 20.652 1.34711 21.3213 2.0143 21.9886C2.68155 22.6557 3.35084 23.0661 4.14004 23.3728C4.90342 23.6695 5.77584 23.8724 7.05326 23.9306C8.33334 23.989 8.74204 24.0029 12.0015 24.0029C15.2608 24.0029 15.6695 23.989 16.9496 23.9306C18.227 23.8724 19.0994 23.6695 19.8628 23.3728C20.652 23.0661 21.3213 22.6557 21.9886 21.9886C22.6557 21.3213 23.0661 20.652 23.3728 19.8628C23.6695 19.0994 23.8724 18.227 23.9306 16.9496C23.989 15.6695 24.0029 15.2608 24.0029 12.0015C24.0029 8.74204 23.989 8.33334 23.9306 7.05326C23.8724 5.77584 23.6695 4.90342 23.3728 4.14004C23.0661 3.35084 22.6557 2.68155 21.9886 2.0143C21.3213 1.34711 20.652 0.93674 19.8628 0.630083C19.0994 0.333383 18.227 0.130485 16.9496 0.0722219C15.6695 0.0138155 15.2608 0 12.0015 0ZM12.0015 2.16242C15.2059 2.16242 15.5855 2.17466 16.851 2.2324C18.0212 2.28576 18.6566 2.48127 19.0795 2.64563C19.6397 2.86334 20.0395 3.1234 20.4595 3.5434C20.8795 3.96334 21.1395 4.36313 21.3572 4.92333C21.5216 5.34623 21.7171 5.98169 21.7705 7.15182C21.8282 8.41732 21.8404 8.79692 21.8404 12.0015C21.8404 15.2059 21.8282 15.5855 21.7705 16.851C21.7171 18.0212 21.5216 18.6566 21.3572 19.0795C21.1395 19.6397 20.8795 20.0395 20.4595 20.4595C20.0395 20.8795 19.6397 21.1395 19.0795 21.3572C18.6566 21.5216 18.0212 21.7171 16.851 21.7705C15.5857 21.8282 15.2062 21.8404 12.0015 21.8404C8.79668 21.8404 8.41718 21.8282 7.15182 21.7705C5.98169 21.7171 5.34623 21.5216 4.92333 21.3572C4.36313 21.1395 3.96334 20.8795 3.5434 20.4595C3.12345 20.0395 2.86334 19.6397 2.64563 19.0795C2.48127 18.6566 2.28576 18.0212 2.2324 16.851C2.17466 15.5855 2.16242 15.2059 2.16242 12.0015C2.16242 8.79692 2.17466 8.41732 2.2324 7.15182C2.28576 5.98169 2.48127 5.34623 2.64563 4.92333C2.86334 4.36313 3.1234 3.96334 3.5434 3.5434C3.96334 3.1234 4.36313 2.86334 4.92333 2.64563C5.34623 2.48127 5.98169 2.28576 7.15182 2.2324C8.41732 2.17466 8.79692 2.16242 12.0015 2.16242Z" fill="#FCFCFC"/>
<path fill-rule="evenodd" clip-rule="evenodd" d="M12.0014 16.0019C9.79201 16.0019 8.00095 14.2109 8.00095 12.0015C8.00095 9.79204 9.79201 8.00098 12.0014 8.00098C14.2108 8.00098 16.0019 9.79204 16.0019 12.0015C16.0019 14.2109 14.2108 16.0019 12.0014 16.0019ZM12.0014 5.83856C8.59773 5.83856 5.83853 8.59776 5.83853 12.0015C5.83853 15.4051 8.59773 18.1643 12.0014 18.1643C15.4051 18.1643 18.1643 15.4051 18.1643 12.0015C18.1643 8.59776 15.4051 5.83856 12.0014 5.83856Z" fill="#FCFCFC"/>
<path fill-rule="evenodd" clip-rule="evenodd" d="M19.848 5.59504C19.848 6.39044 19.2032 7.03519 18.4078 7.03519C17.6125 7.03519 16.9677 6.39044 16.9677 5.59504C16.9677 4.79965 17.6125 4.15485 18.4078 4.15485C19.2032 4.15485 19.848 4.79965 19.848 5.59504Z" fill="#FCFCFC"/>
</g>
<defs>
<filter id="filter0_d" x="0" y="0" width="24.0029" height="26.0029" filterUnits="userSpaceOnUse" color-interpolation-filters="sRGB">
<feFlood flood-opacity="0" result="BackgroundImageFix"/>
<feColorMatrix in="SourceAlpha" type="matrix" values="0 0 0 0 0 0 0 0 0 0 0 0 0 0 0 0 0 0 127 0"/>
<feOffset dy="2"/>
<feColorMatrix type="matrix" values="0 0 0 0 0 0 0 0 0 0 0 0 0 0 0 0 0 0 0.15 0"/>
<feBlend mode="normal" in2="BackgroundImageFix" result="effect1_dropShadow"/>
<feBlend mode="normal" in="SourceGraphic" in2="effect1_dropShadow" result="shape"/>
</filter>
</defs>
</svg>
