<svg width="40" height="28" viewBox="0 0 40 28" fill="none" xmlns="http://www.w3.org/2000/svg">
<g filter="url(#filter0_d)">
<path d="M7.95811 0H8.03258C8.60065 0.651668 9.24282 1.22886 9.84795 1.8526L13.9628 5.96742V6.04189C11.9707 8.02483 9.98759 10.0264 7.99535 12.0093C5.99379 10.0171 4.00155 8.01552 2 6.02327C2.10259 5.82777 2.29791 5.69744 2.44686 5.53918C4.28084 3.68658 6.14275 1.86191 7.95811 0ZM19.9674 0H20.0419C20.0979 0.0837859 20.1536 0.158262 20.2281 0.232739C22.1552 2.14119 24.0545 4.07758 26 5.97673C25.9535 6.08844 25.851 6.16292 25.7673 6.2467C23.8404 8.16447 21.9224 10.0915 19.9953 12.0093C17.9845 10.0264 16.0109 8.00621 13.9907 6.03258C15.9457 3.99379 18.0031 2.02948 19.9674 0ZM31.9767 0H32.0512C32.4236 0.446858 32.8611 0.828549 33.2614 1.24748C34.7696 2.75562 36.2686 4.25446 37.7766 5.76261C37.8512 5.84639 37.9723 5.92087 38 6.04189C35.9798 8.00621 34.0248 10.045 31.9953 12.0093L26.27 6.28394C26.1769 6.18154 26.0559 6.10706 26.0093 5.97673C27.0241 4.98991 28.0109 3.97517 29.0163 2.97905C30.0031 1.98293 31.0085 1.01474 31.9767 0ZM14.0745 17.9209C16.0388 15.9566 18.0124 13.9922 19.9767 12.0186L20.0603 12.0559C22.034 14.0388 24.0076 16.0217 25.9998 17.986C25.9348 18.135 25.7952 18.2188 25.6926 18.3398C24.2591 19.7642 22.8253 21.2071 21.3916 22.6315C20.9261 23.0784 20.4793 23.5811 20.0047 24C19.3251 23.3856 18.7013 22.6967 18.0402 22.0636C16.6998 20.723 15.3685 19.3825 14.0186 18.0512C14.0372 18.014 14.0559 17.9581 14.0745 17.9209Z" fill="#FCFCFC"/>
</g>
<defs>
<filter id="filter0_d" x="0" y="0" width="40" height="28" filterUnits="userSpaceOnUse" color-interpolation-filters="sRGB">
<feFlood flood-opacity="0" result="BackgroundImageFix"/>
<feColorMatrix in="SourceAlpha" type="matrix" values="0 0 0 0 0 0 0 0 0 0 0 0 0 0 0 0 0 0 127 0"/>
<feOffset dy="2"/>
<feGaussianBlur stdDeviation="1"/>
<feColorMatrix type="matrix" values="0 0 0 0 0 0 0 0 0 0 0 0 0 0 0 0 0 0 0.25 0"/>
<feBlend mode="normal" in2="BackgroundImageFix" result="effect1_dropShadow"/>
<feBlend mode="normal" in="SourceGraphic" in2="effect1_dropShadow" result="shape"/>
</filter>
</defs>
</svg>
