<svg width="29" height="29" viewBox="0 0 29 29" fill="none" xmlns="http://www.w3.org/2000/svg">
<g filter="url(#filter0_d)">
<path fill-rule="evenodd" clip-rule="evenodd" d="M14.0015 0C10.742 0 10.3333 0.0138155 9.05326 0.0722219C7.77584 0.130485 6.90342 0.333383 6.14004 0.630083C5.35084 0.93674 4.68155 1.34711 4.0143 2.0143C3.34711 2.68155 2.93674 3.35084 2.63008 4.14004C2.33338 4.90342 2.13049 5.77584 2.07222 7.05326C2.01382 8.33334 2 8.74204 2 12.0015C2 15.2608 2.01382 15.6695 2.07222 16.9496C2.13049 18.227 2.33338 19.0994 2.63008 19.8628C2.93674 20.652 3.34711 21.3213 4.0143 21.9886C4.68155 22.6557 5.35084 23.0661 6.14004 23.3728C6.90342 23.6695 7.77584 23.8724 9.05326 23.9306C10.3333 23.989 10.742 24.0029 14.0015 24.0029C17.2608 24.0029 17.6695 23.989 18.9496 23.9306C20.227 23.8724 21.0994 23.6695 21.8628 23.3728C22.652 23.0661 23.3213 22.6557 23.9886 21.9886C24.6557 21.3213 25.0661 20.652 25.3728 19.8628C25.6695 19.0994 25.8724 18.227 25.9306 16.9496C25.989 15.6695 26.0029 15.2608 26.0029 12.0015C26.0029 8.74204 25.989 8.33334 25.9306 7.05326C25.8724 5.77584 25.6695 4.90342 25.3728 4.14004C25.0661 3.35084 24.6557 2.68155 23.9886 2.0143C23.3213 1.34711 22.652 0.93674 21.8628 0.630083C21.0994 0.333383 20.227 0.130485 18.9496 0.0722219C17.6695 0.0138155 17.2608 0 14.0015 0ZM14.0015 2.16242C17.2059 2.16242 17.5855 2.17466 18.851 2.2324C20.0212 2.28576 20.6566 2.48127 21.0795 2.64563C21.6397 2.86334 22.0395 3.1234 22.4595 3.5434C22.8795 3.96334 23.1395 4.36313 23.3572 4.92333C23.5216 5.34623 23.7171 5.98169 23.7705 7.15182C23.8282 8.41732 23.8404 8.79692 23.8404 12.0015C23.8404 15.2059 23.8282 15.5855 23.7705 16.851C23.7171 18.0212 23.5216 18.6566 23.3572 19.0795C23.1395 19.6397 22.8795 20.0395 22.4595 20.4595C22.0395 20.8795 21.6397 21.1395 21.0795 21.3572C20.6566 21.5216 20.0212 21.7171 18.851 21.7705C17.5857 21.8282 17.2062 21.8404 14.0015 21.8404C10.7967 21.8404 10.4172 21.8282 9.15182 21.7705C7.98169 21.7171 7.34623 21.5216 6.92333 21.3572C6.36313 21.1395 5.96334 20.8795 5.5434 20.4595C5.12345 20.0395 4.86334 19.6397 4.64563 19.0795C4.48127 18.6566 4.28576 18.0212 4.2324 16.851C4.17466 15.5855 4.16242 15.2059 4.16242 12.0015C4.16242 8.79692 4.17466 8.41732 4.2324 7.15182C4.28576 5.98169 4.48127 5.34623 4.64563 4.92333C4.86334 4.36313 5.1234 3.96334 5.5434 3.5434C5.96334 3.1234 6.36313 2.86334 6.92333 2.64563C7.34623 2.48127 7.98169 2.28576 9.15182 2.2324C10.4173 2.17466 10.7969 2.16242 14.0015 2.16242Z" fill="#FCFCFC"/>
<path fill-rule="evenodd" clip-rule="evenodd" d="M14.0014 16.0019C11.792 16.0019 10.0009 14.2109 10.0009 12.0015C10.0009 9.79204 11.792 8.00098 14.0014 8.00098C16.2108 8.00098 18.0019 9.79204 18.0019 12.0015C18.0019 14.2109 16.2108 16.0019 14.0014 16.0019ZM14.0014 5.83856C10.5977 5.83856 7.83853 8.59776 7.83853 12.0015C7.83853 15.4051 10.5977 18.1643 14.0014 18.1643C17.4051 18.1643 20.1643 15.4051 20.1643 12.0015C20.1643 8.59776 17.4051 5.83856 14.0014 5.83856Z" fill="#FCFCFC"/>
<path fill-rule="evenodd" clip-rule="evenodd" d="M21.848 5.59504C21.848 6.39044 21.2032 7.03519 20.4078 7.03519C19.6125 7.03519 18.9677 6.39044 18.9677 5.59504C18.9677 4.79965 19.6125 4.15485 20.4078 4.15485C21.2032 4.15485 21.848 4.79965 21.848 5.59504Z" fill="#FCFCFC"/>
</g>
<defs>
<filter id="filter0_d" x="0" y="0" width="28.0029" height="28.0029" filterUnits="userSpaceOnUse" color-interpolation-filters="sRGB">
<feFlood flood-opacity="0" result="BackgroundImageFix"/>
<feColorMatrix in="SourceAlpha" type="matrix" values="0 0 0 0 0 0 0 0 0 0 0 0 0 0 0 0 0 0 127 0"/>
<feOffset dy="2"/>
<feGaussianBlur stdDeviation="1"/>
<feColorMatrix type="matrix" values="0 0 0 0 0 0 0 0 0 0 0 0 0 0 0 0 0 0 0.25 0"/>
<feBlend mode="normal" in2="BackgroundImageFix" result="effect1_dropShadow"/>
<feBlend mode="normal" in="SourceGraphic" in2="effect1_dropShadow" result="shape"/>
</filter>
</defs>
</svg>
