<svg width="29" height="28" viewBox="0 0 29 28" fill="none" xmlns="http://www.w3.org/2000/svg">
<g filter="url(#filter0_d)">
<path fill-rule="evenodd" clip-rule="evenodd" d="M26.1182 12.0733C26.1182 5.40541 20.7192 0 14.0591 0C7.39904 0 2 5.40541 2 12.0733C2 18.0995 6.40984 23.0943 12.1749 24V15.5633H9.11299V12.0733H12.1749V9.41343C12.1749 6.38755 13.9752 4.71615 16.7298 4.71615C18.0491 4.71615 19.4292 4.95195 19.4292 4.95195V7.92313H17.9086C16.4105 7.92313 15.9433 8.85379 15.9433 9.80857V12.0733H19.2879L18.7532 15.5633H15.9433V24C21.7084 23.0943 26.1182 18.0995 26.1182 12.0733Z" fill="#FCFCFC"/>
</g>
<defs>
<filter id="filter0_d" x="0" y="0" width="28.1182" height="28" filterUnits="userSpaceOnUse" color-interpolation-filters="sRGB">
<feFlood flood-opacity="0" result="BackgroundImageFix"/>
<feColorMatrix in="SourceAlpha" type="matrix" values="0 0 0 0 0 0 0 0 0 0 0 0 0 0 0 0 0 0 127 0"/>
<feOffset dy="2"/>
<feGaussianBlur stdDeviation="1"/>
<feColorMatrix type="matrix" values="0 0 0 0 0 0 0 0 0 0 0 0 0 0 0 0 0 0 0.25 0"/>
<feBlend mode="normal" in2="BackgroundImageFix" result="effect1_dropShadow"/>
<feBlend mode="normal" in="SourceGraphic" in2="effect1_dropShadow" result="shape"/>
</filter>
</defs>
</svg>
