<svg width="35" height="27" viewBox="0 0 35 27" fill="white" xmlns="http://www.w3.org/2000/svg">
<g filter="url(#filter0_d)">
<path fill-rule="evenodd" clip-rule="evenodd" d="M30.3508 0.716747C31.817 1.11113 32.9715 2.27319 33.3634 3.74889C34.0755 6.42343 34.0755 12.0039 34.0755 12.0039C34.0755 12.0039 34.0755 17.5841 33.3634 20.2591C32.9715 21.7346 31.817 22.8966 30.3508 23.2912C27.6935 24.0077 17.0378 24.0077 17.0378 24.0077C17.0378 24.0077 6.382 24.0077 3.72469 23.2912C2.25866 22.8966 1.10397 21.7346 0.712101 20.2591C0 17.5841 0 12.0039 0 12.0039C0 12.0039 0 6.42343 0.712101 3.74889C1.10397 2.27319 2.25866 1.11113 3.72469 0.716747C6.382 0 17.0378 0 17.0378 0C17.0378 0 27.6935 0 30.3508 0.716747ZM22.4591 12.0043L13.553 17.0707V6.9375L22.4591 12.0043Z" fill="#FCFCFC"/>
</g>
<!-- <defs>
<filter id="filter0_d" x="0" y="0" width="34.0755" height="26.0077" filterUnits="userSpaceOnUse" color-interpolation-filters="sRGB">
<feFlood flood-opacity="0" result="BackgroundImageFix"/>
<feColorMatrix in="SourceAlpha" type="matrix" values="0 0 0 0 0 0 0 0 0 0 0 0 0 0 0 0 0 0 127 0"/>
<feOffset dy="2"/>
<feColorMatrix type="matrix" values="0 0 0 0 0 0 0 0 0 0 0 0 0 0 0 0 0 0 0.15 0"/>
<feBlend mode="normal" in2="BackgroundImageFix" result="effect1_dropShadow"/>
<feBlend mode="normal" in="SourceGraphic" in2="effect1_dropShadow" result="shape"/>
</filter>
</defs> -->
</svg>
