<svg fill="none" height="24" viewBox="0 0 25 24" width="25" xmlns="http://www.w3.org/2000/svg"><g clip-rule="evenodd" fill="#fff" fill-rule="evenodd"><path d="m12.0015.00805664c-3.25946 0-3.66817.01381556-4.94824.07222186-1.27742.0582635-2.14984.2611615-2.91322.5578615-.7892.306657-1.45849.71703-2.12574 1.38422-.66719.66724-1.07756 1.33653-1.384217 2.12573-.2967.76338-.499598 1.63581-.5578611 2.91322-.0584064 1.28008-.0722219 1.68878-.0722219 4.94819 0 3.2594.0138155 3.6681.0722219 4.9482.0582631 1.2774.2611611 2.1498.5578611 2.9132.306657.7892.717027 1.4585 1.384217 2.1257.66725.6672 1.33654 1.0776 2.12574 1.3843.76338.2966 1.6358.4995 2.91322.5578 1.28007.0584 1.68878.0722 4.94824.0722 3.2593 0 3.668-.0138 4.9481-.0722 1.2774-.0583 2.1498-.2612 2.9132-.5578.7892-.3067 1.4585-.7171 2.1258-1.3843.6671-.6672 1.0775-1.3365 1.3842-2.1257.2967-.7634.4996-1.6358.5578-2.9132.0584-1.2801.0723-1.6888.0723-4.9482 0-3.25941-.0139-3.66811-.0723-4.94819-.0582-1.27741-.2611-2.14984-.5578-2.91322-.3067-.7892-.7171-1.45849-1.3842-2.12573-.6673-.66719-1.3366-1.077563-2.1258-1.38422-.7634-.2967-1.6358-.499598-2.9132-.5578615-1.2801-.0584063-1.6888-.07222186-4.9481-.07222186zm0 2.16241336c3.2044 0 3.584.01225 4.8495.06999 1.1702.05335 1.8056.24887 2.2285.41322.5602.21772.96.47778 1.38.89777.42.41995.68.81974.8977 1.37994.1644.42289.3599 1.05836.4133 2.22849.0577 1.2655.0699 1.64509.0699 4.84962 0 3.2045-.0122 3.5841-.0699 4.8496-.0534 1.1701-.2489 1.8056-.4133 2.2285-.2177.5602-.4777.96-.8977 1.3799-.42.42-.8198.6801-1.38.8978-.4229.1643-1.0583.3599-2.2285.4132-1.2653.0578-1.6448.07-4.8495.07-3.20482 0-3.58432-.0122-4.84968-.07-1.17013-.0533-1.80559-.2489-2.22849-.4132-.5602-.2177-.95999-.4778-1.37993-.8978-.41995-.4199-.68006-.8197-.89777-1.3799-.16436-.4229-.35987-1.0584-.41323-2.2285-.05774-1.2655-.06998-1.6451-.06998-4.8496 0-3.20453.01224-3.58412.06998-4.84962.05336-1.17013.24887-1.8056.41323-2.22849.21771-.5602.47777-.95999.89777-1.37994.41994-.41999.81973-.68005 1.37993-.89777.4229-.16435 1.05836-.35987 2.22849-.41322 1.2655-.05774 1.6451-.06999 4.84968-.06999z"/><path d="m12.0014 16.01c-2.20942 0-4.00048-1.791-4.00048-4.0004 0-2.20944 1.79106-4.0005 4.00048-4.0005 2.2094 0 4.0005 1.79106 4.0005 4.0005 0 2.2094-1.7911 4.0004-4.0005 4.0004zm0-10.16332c-3.4037 0-6.1629 2.7592-6.1629 6.16292 0 3.4037 2.7592 6.1629 6.1629 6.1629s6.1629-2.7592 6.1629-6.1629c0-3.40372-2.7592-6.16292-6.1629-6.16292z"/><path d="m19.848 5.60304c0 .79539-.6448 1.44015-1.4402 1.44015-.7953 0-1.4401-.64476-1.4401-1.44015s.6448-1.4402 1.4401-1.4402c.7954 0 1.4402.64481 1.4402 1.4402z"/></g></svg>