<svg width="28" height="28" viewBox="0 0 28 28" fill="none" xmlns="http://www.w3.org/2000/svg">
<g filter="url(#filter0_d)">
<path d="M25.9974 6.12366C25.9966 5.38555 25.9327 4.65255 25.7573 3.93232C25.4407 2.62467 24.6957 1.62265 23.5771 0.890497C23.0033 0.515058 22.3733 0.283495 21.7007 0.162605C21.1831 0.0698095 20.6613 0.0272427 20.136 0.0119187C20.0951 0.010216 20.0526 0.00425668 20.0117 0H7.98744C7.8359 0.00851336 7.68436 0.0170267 7.53282 0.0255401C6.78535 0.0681068 6.04299 0.149835 5.34064 0.42737C4.00234 0.956901 3.03863 1.87975 2.47334 3.20613C2.28179 3.65563 2.18133 4.13238 2.11067 4.61509C2.05363 5.0067 2.02128 5.40002 2.01022 5.79589C2.00936 5.82654 2.00255 5.85719 2 5.88784V18.1122C2.00851 18.2535 2.01618 18.3948 2.02554 18.5361C2.07577 19.3509 2.17963 20.1605 2.52272 20.9088C3.17314 22.3288 4.26029 23.2619 5.75694 23.7105C6.17835 23.8374 6.61253 23.8978 7.05012 23.9387C7.60434 23.9915 8.16026 24 8.71618 24C12.3931 24 16.07 24 19.7469 23.9983C20.2722 23.9983 20.7949 23.9651 21.3168 23.8995C22.14 23.794 22.9139 23.5488 23.6128 23.0891C24.454 22.5357 25.0848 21.8019 25.4926 20.8807C25.679 20.4593 25.7854 20.0115 25.8621 19.5569C25.9761 18.8818 26.0008 18.199 26 17.5162C25.9983 13.7184 26.0008 9.92146 25.9974 6.12366ZM19.5741 10.1139C19.5741 12.0183 19.575 13.9227 19.5733 15.8263C19.5733 16.2435 19.5162 16.653 19.3306 17.0327C19.042 17.6235 18.5695 17.9947 17.9429 18.1726C17.5939 18.2722 17.2372 18.3293 16.8737 18.3454C15.9219 18.3905 15.0995 17.7452 14.9292 16.8096C14.7879 16.0375 15.1574 15.1861 15.9687 14.7885C16.2922 14.6285 16.6379 14.5391 16.9869 14.4642C17.3649 14.3825 17.7446 14.3109 18.1209 14.2241C18.395 14.1611 18.578 13.9934 18.6317 13.7082C18.6444 13.6452 18.6496 13.5797 18.6496 13.515C18.6504 11.6999 18.6504 9.88571 18.6487 8.07151C18.6487 8.00936 18.6385 7.94637 18.6232 7.88677C18.584 7.73609 18.4742 7.64414 18.3192 7.65266C18.1592 7.66202 18.0017 7.68756 17.8442 7.71906C17.084 7.86889 16.3246 8.02299 15.5652 8.17623C14.7896 8.33202 14.014 8.48952 13.2376 8.64616C12.7796 8.73896 12.3216 8.8309 11.8636 8.9237C11.8474 8.9271 11.8312 8.93221 11.8159 8.93647C11.5392 9.01309 11.4387 9.13994 11.426 9.42599C11.4243 9.46941 11.4251 9.51282 11.4251 9.55709C11.4243 12.1588 11.4251 14.7613 11.4234 17.3621C11.4234 17.7827 11.3766 18.1981 11.208 18.5889C10.9297 19.2308 10.4376 19.6301 9.77354 19.8233C9.42279 19.9247 9.06267 19.9825 8.6983 19.9953C7.7397 20.0311 6.9437 19.3943 6.77939 18.451C6.63722 17.638 7.00925 16.7653 7.9321 16.3746C8.28881 16.2248 8.6634 16.1422 9.03969 16.0638C9.32659 16.0034 9.61434 15.9489 9.90039 15.8876C10.2826 15.8042 10.4827 15.5641 10.4989 15.1734C10.5006 15.1223 10.4997 15.0737 10.4997 15.0227C10.4997 12.0626 10.4997 9.10163 10.5014 6.14153C10.5014 6.01809 10.5142 5.89124 10.5431 5.7712C10.613 5.48601 10.8164 5.3234 11.0889 5.25274C11.3443 5.18634 11.6039 5.14036 11.8627 5.08758C12.5957 4.93945 13.3287 4.79217 14.0617 4.64489C14.8194 4.49165 15.5762 4.33926 16.3339 4.18602C17.0031 4.05065 17.6722 3.91359 18.3431 3.78163C18.5627 3.73821 18.7858 3.69395 19.0071 3.67607C19.317 3.65138 19.5298 3.84633 19.5613 4.15792C19.569 4.23199 19.5733 4.30691 19.5733 4.38182C19.575 6.29307 19.575 8.20347 19.5741 10.1139Z" fill="#FCFCFC"/>
</g>
<defs>
<filter id="filter0_d" x="0" y="0" width="28" height="28" filterUnits="userSpaceOnUse" color-interpolation-filters="sRGB">
<feFlood flood-opacity="0" result="BackgroundImageFix"/>
<feColorMatrix in="SourceAlpha" type="matrix" values="0 0 0 0 0 0 0 0 0 0 0 0 0 0 0 0 0 0 127 0"/>
<feOffset dy="2"/>
<feGaussianBlur stdDeviation="1"/>
<feColorMatrix type="matrix" values="0 0 0 0 0 0 0 0 0 0 0 0 0 0 0 0 0 0 0.25 0"/>
<feBlend mode="normal" in2="BackgroundImageFix" result="effect1_dropShadow"/>
<feBlend mode="normal" in="SourceGraphic" in2="effect1_dropShadow" result="shape"/>
</filter>
</defs>
</svg>
