<svg width="24" height="26" viewBox="0 0 24 26" fill="white" xmlns="http://www.w3.org/2000/svg">
<g filter="url(#filter0_d)">
<path fill-rule="evenodd" clip-rule="evenodd" d="M19.08 10.639C15.2237 8.3489 8.86282 8.13833 5.18153 9.25561C4.59025 9.43504 3.9651 9.10133 3.78596 8.51018C3.60682 7.91861 3.94025 7.2939 4.53182 7.11418C8.75768 5.83147 15.7827 6.07918 20.2221 8.71447C20.7538 9.03018 20.9282 9.7169 20.6131 10.2478C20.2977 10.7795 19.6104 10.9548 19.08 10.639ZM18.9537 14.031C18.6831 14.47 18.1091 14.6078 17.6707 14.3382C14.4557 12.362 9.55325 11.7895 5.74968 12.944C5.25639 13.093 4.73553 12.815 4.58568 12.3226C4.43711 11.8295 4.71525 11.3095 5.20768 11.1595C9.55268 9.8409 14.9542 10.4795 18.6468 12.7488C19.0852 13.0188 19.2232 13.593 18.9537 14.031ZM17.4898 17.2886C17.2748 17.6412 16.8158 17.7516 16.4645 17.5368C13.6552 15.8198 10.1192 15.432 5.95496 16.3832C5.55368 16.4752 5.15368 16.2238 5.0621 15.8225C4.97025 15.4213 5.22082 15.0213 5.62296 14.9298C10.1801 13.888 14.0891 14.3363 17.2424 16.2632C17.594 16.4779 17.7047 16.9372 17.4898 17.2886ZM12.0032 0.0333252C5.39625 0.0333252 0.0399628 5.38947 0.0399628 11.9965C0.0399628 18.6042 5.39625 23.9599 12.0032 23.9599C18.6105 23.9599 23.9665 18.6042 23.9665 11.9965C23.9665 5.38947 18.6105 0.0333252 12.0032 0.0333252Z" fill="#FCFCFC"/>
</g>
<!-- <defs>
<filter id="filter0_d" x="0.0399628" y="0.0333252" width="23.9266" height="25.9266" filterUnits="userSpaceOnUse" color-interpolation-filters="sRGB">
<feFlood flood-opacity="0" result="BackgroundImageFix"/>
<feColorMatrix in="SourceAlpha" type="matrix" values="0 0 0 0 0 0 0 0 0 0 0 0 0 0 0 0 0 0 127 0"/>
<feOffset dy="2"/>
<feColorMatrix type="matrix" values="0 0 0 0 0 0 0 0 0 0 0 0 0 0 0 0 0 0 0.15 0"/>
<feBlend mode="normal" in2="BackgroundImageFix" result="effect1_dropShadow"/>
<feBlend mode="normal" in="SourceGraphic" in2="effect1_dropShadow" result="shape"/>
</filter>
</defs> -->
</svg>
