<svg width="39" height="29" viewBox="0 0 39 29" fill="none" xmlns="http://www.w3.org/2000/svg">
<g filter="url(#filter0_d)">
<path fill-rule="evenodd" clip-rule="evenodd" d="M32.3508 0.716747C33.817 1.11113 34.9715 2.27319 35.3634 3.74889C36.0755 6.42343 36.0755 12.0039 36.0755 12.0039C36.0755 12.0039 36.0755 17.5841 35.3634 20.2591C34.9715 21.7346 33.817 22.8966 32.3508 23.2912C29.6935 24.0077 19.0378 24.0077 19.0378 24.0077C19.0378 24.0077 8.382 24.0077 5.72469 23.2912C4.25866 22.8966 3.10397 21.7346 2.7121 20.2591C2 17.5841 2 12.0039 2 12.0039C2 12.0039 2 6.42343 2.7121 3.74889C3.10397 2.27319 4.25866 1.11113 5.72469 0.716747C8.382 0 19.0378 0 19.0378 0C19.0378 0 29.6935 0 32.3508 0.716747ZM24.4591 12.0043L15.553 17.0707V6.9375L24.4591 12.0043Z" fill="#FCFCFC"/>
</g>
<defs>
<filter id="filter0_d" x="0" y="0" width="38.0755" height="28.0077" filterUnits="userSpaceOnUse" color-interpolation-filters="sRGB">
<feFlood flood-opacity="0" result="BackgroundImageFix"/>
<feColorMatrix in="SourceAlpha" type="matrix" values="0 0 0 0 0 0 0 0 0 0 0 0 0 0 0 0 0 0 127 0"/>
<feOffset dy="2"/>
<feGaussianBlur stdDeviation="1"/>
<feColorMatrix type="matrix" values="0 0 0 0 0 0 0 0 0 0 0 0 0 0 0 0 0 0 0.25 0"/>
<feBlend mode="normal" in2="BackgroundImageFix" result="effect1_dropShadow"/>
<feBlend mode="normal" in="SourceGraphic" in2="effect1_dropShadow" result="shape"/>
</filter>
</defs>
</svg>
