<svg width="30" height="26" viewBox="0 0 30 26" fill="none" xmlns="http://www.w3.org/2000/svg">
<g filter="url(#filter0_d)">
<path d="M9.26287 24C20.3778 24 26.4573 14.7657 26.4573 6.75773C26.4573 6.49545 26.4573 6.23434 26.4396 5.97442C27.6223 5.11658 28.6432 4.0544 29.4545 2.83764C28.3516 3.32771 27.1816 3.6491 25.9836 3.79108C27.2452 3.03374 28.1893 1.84258 28.6404 0.439268C27.4542 1.14514 26.1564 1.6426 24.8031 1.91019C23.8919 0.938654 22.6869 0.295328 21.3744 0.0797644C20.0619 -0.135799 18.7152 0.0884165 17.5426 0.717716C16.37 1.34702 15.4369 2.34631 14.8877 3.56097C14.3385 4.77563 14.2039 6.13794 14.5046 7.43707C12.102 7.31629 9.75157 6.69019 7.60592 5.59941C5.46026 4.50864 3.56734 2.97757 2.05004 1.10561C1.27726 2.43968 1.04057 4.01894 1.38817 5.52185C1.73576 7.02476 2.64151 8.33832 3.92099 9.19509C2.95929 9.16651 2.01855 8.90636 1.17818 8.43659C1.17818 8.4614 1.17818 8.48739 1.17818 8.51338C1.17856 9.91249 1.66154 11.2684 2.54521 12.3511C3.42887 13.4339 4.6588 14.1767 6.0264 14.4538C5.13672 14.6971 4.20326 14.7327 3.29773 14.5577C3.68389 15.7619 4.4357 16.8148 5.448 17.5694C6.4603 18.324 7.68247 18.7424 8.94358 18.7661C6.80369 20.4526 4.16023 21.3681 1.43856 21.3653C0.957748 21.3644 0.477404 21.3352 0 21.2779C2.76359 23.0563 5.97917 23.9997 9.26287 23.9953" fill="#FCFCFC"/>
</g>
<defs>
<filter id="filter0_d" x="0" y="0" width="29.4545" height="26" filterUnits="userSpaceOnUse" color-interpolation-filters="sRGB">
<feFlood flood-opacity="0" result="BackgroundImageFix"/>
<feColorMatrix in="SourceAlpha" type="matrix" values="0 0 0 0 0 0 0 0 0 0 0 0 0 0 0 0 0 0 127 0"/>
<feOffset dy="2"/>
<feColorMatrix type="matrix" values="0 0 0 0 0 0 0 0 0 0 0 0 0 0 0 0 0 0 0.15 0"/>
<feBlend mode="normal" in2="BackgroundImageFix" result="effect1_dropShadow"/>
<feBlend mode="normal" in="SourceGraphic" in2="effect1_dropShadow" result="shape"/>
</filter>
</defs>
</svg>
