<svg width="60" height="28" viewBox="0 0 60 28" fill="none" xmlns="http://www.w3.org/2000/svg">
<g filter="url(#filter0_d)">
<path d="M4.66894 12.4518C4.55082 12.4518 4.45387 12.5468 4.43899 12.6779L3.89474 17.6403L4.43899 22.4931C4.45387 22.6219 4.55082 22.7169 4.66894 22.7169C4.78505 22.7169 4.88 22.6242 4.89888 22.4931L5.51492 17.6403L4.89888 12.6756C4.87972 12.5448 4.78477 12.4518 4.66894 12.4518ZM2.62662 14.3539C2.51051 14.3539 2.41985 14.4426 2.40497 14.5691L2 17.6403L2.40497 20.6569C2.41985 20.7831 2.51051 20.8721 2.62662 20.8721C2.73845 20.8721 2.82911 20.7831 2.84799 20.6569L3.32474 17.6403L2.84799 14.5691C2.82911 14.4423 2.73845 14.3539 2.62662 14.3539ZM6.83766 11.4789C6.69209 11.4789 6.57598 11.5928 6.5611 11.751L6.04631 17.6403L6.5611 23.3121C6.57598 23.4706 6.69209 23.5842 6.83766 23.5842C6.98095 23.5842 7.09706 23.4706 7.11623 23.3144L7.70052 17.6403L7.11623 11.751C7.09706 11.5928 6.98095 11.4789 6.83766 11.4789ZM9.02527 11.272C8.85424 11.272 8.71524 11.4091 8.70237 11.5908L8.21503 17.6406L8.70237 23.4941C8.71496 23.6755 8.85424 23.8123 9.02527 23.8123C9.19629 23.8123 9.33529 23.6752 9.35016 23.4941L9.90328 17.6406L9.35016 11.5888C9.33557 11.4091 9.19629 11.272 9.02527 11.272ZM11.6013 12.0255C11.5887 11.8186 11.4285 11.6623 11.232 11.6623C11.0315 11.6623 10.8734 11.8186 10.8608 12.0298L10.4009 17.6403L10.8608 23.5422C10.8734 23.7508 11.0318 23.9096 11.232 23.9096C11.4285 23.9096 11.5887 23.7508 11.6013 23.5422L12.1246 17.6403L11.6013 12.0255ZM13.456 8.0972C13.2323 8.0972 13.0487 8.27862 13.0381 8.51297L12.6057 17.6446L13.0381 23.5442C13.0487 23.7745 13.2323 23.9579 13.456 23.9579C13.6753 23.9579 13.8589 23.7737 13.8735 23.5419V23.5442L14.3609 17.6446L13.8735 8.51097C13.8586 8.2789 13.6753 8.0972 13.456 8.0972ZM15.6624 5.99256C15.4113 5.99256 15.2068 6.19744 15.1963 6.45498L14.7933 17.6764L15.1963 23.5402C15.2068 23.7957 15.4113 24 15.6624 24C15.9092 24 16.116 23.7954 16.1266 23.5379V23.5402L16.5845 17.6764L16.1266 6.45498C16.116 6.19744 15.9095 5.99256 15.6624 5.99256ZM17.9559 4.97959C17.6773 4.97959 17.4516 5.20336 17.4433 5.49037L17.0655 17.6466L17.4433 23.4489C17.4516 23.7316 17.6776 23.9556 17.9559 23.9556C18.2301 23.9556 18.4558 23.7319 18.4664 23.4472V23.4517L18.8902 17.6466L18.4664 5.49037C18.4558 5.20336 18.2301 4.97959 17.9559 4.97959ZM20.7912 5.08089C20.7807 4.76841 20.5358 4.52346 20.2321 4.52346C19.9261 4.52346 19.6793 4.76841 19.673 5.08089L19.3229 17.6469L19.673 23.4157C19.6769 23.722 19.9259 23.9685 20.2321 23.9691C20.5358 23.9691 20.7807 23.7244 20.7912 23.412L21.1836 17.6472L20.7912 5.08089ZM22.5255 4.79788C22.1944 4.79788 21.9264 5.064 21.9201 5.40166L21.5992 17.6466L21.9201 23.3607C21.9264 23.6964 22.1944 23.9628 22.5255 23.9628C22.8567 23.9628 23.1227 23.6964 23.1333 23.357V23.363L23.4919 17.6469L23.1333 5.40195C23.1224 5.064 22.8567 4.79788 22.5255 4.79788ZM24.8378 5.19907C24.4792 5.19907 24.1923 5.48607 24.1838 5.8512L23.8926 17.6483L24.1855 23.3247C24.1918 23.6858 24.4786 23.9728 24.8373 23.9728C25.1959 23.9728 25.485 23.6858 25.4913 23.3207V23.3253L25.8202 17.6492L25.4913 5.84977C25.4891 5.49008 25.1973 5.19953 24.8378 5.19907ZM27.5551 3.0289C27.4408 2.95247 27.3065 2.91137 27.169 2.91072C27.0297 2.91072 26.899 2.95279 26.7892 3.02461C26.5916 3.15381 26.4712 3.37302 26.4683 3.60921L26.464 3.74227L26.2023 17.646C26.2023 17.6543 26.468 23.2886 26.468 23.2886V23.3115C26.4766 23.4703 26.5355 23.6154 26.6328 23.7296C26.7642 23.8908 26.9608 23.9847 27.1687 23.9857C27.3586 23.9857 27.5317 23.9053 27.6581 23.7785C27.7845 23.6518 27.8648 23.4786 27.8691 23.2863L28.1646 17.6483L27.8691 3.60921C27.8646 3.37629 27.7476 3.15999 27.5551 3.0289ZM29.8691 1.69916C29.601 1.5349 29.258 1.56048 29.0171 1.76269C28.8445 1.90359 28.7433 2.11385 28.7409 2.3367L28.7389 2.41482L28.4334 17.6509L28.7414 23.2088C28.7457 23.614 29.0812 23.9499 29.4879 23.9499C29.8954 23.9499 30.2309 23.614 30.2369 23.2028V23.2088L30.5681 17.6509L30.2369 2.3367C30.232 2.07506 30.0931 1.83429 29.8691 1.69916ZM50.4438 10.4024C49.5132 10.4024 48.6252 10.5901 47.8152 10.9301C47.275 4.80446 42.1399 0 35.8785 0C34.3918 0.00168928 32.918 0.276465 31.5305 0.810664C31.0177 1.00897 30.8827 1.21385 30.8767 1.61074V23.1856C30.8827 23.6014 31.205 23.9245 31.6106 23.9645C31.6274 23.9668 50.4441 23.9645 50.4441 23.9645C54.1973 23.9645 57.2377 20.9565 57.2377 17.2014C57.2375 13.4462 54.197 10.4024 50.4438 10.4024Z" fill="#FCFCFC"/>
</g>
<defs>
<filter id="filter0_d" x="0" y="0" width="59.2377" height="28" filterUnits="userSpaceOnUse" color-interpolation-filters="sRGB">
<feFlood flood-opacity="0" result="BackgroundImageFix"/>
<feColorMatrix in="SourceAlpha" type="matrix" values="0 0 0 0 0 0 0 0 0 0 0 0 0 0 0 0 0 0 127 0"/>
<feOffset dy="2"/>
<feGaussianBlur stdDeviation="1"/>
<feColorMatrix type="matrix" values="0 0 0 0 0 0 0 0 0 0 0 0 0 0 0 0 0 0 0.25 0"/>
<feBlend mode="normal" in2="BackgroundImageFix" result="effect1_dropShadow"/>
<feBlend mode="normal" in="SourceGraphic" in2="effect1_dropShadow" result="shape"/>
</filter>
</defs>
</svg>
