<svg width="25" height="26" viewBox="0 0 25 26" fill="none" xmlns="http://www.w3.org/2000/svg">
<g filter="url(#filter0_d)">
<path fill-rule="evenodd" clip-rule="evenodd" d="M24.1182 12.0733C24.1182 5.40541 18.7192 0 12.0591 0C5.39904 0 0 5.40541 0 12.0733C0 18.0995 4.40984 23.0943 10.1749 24V15.5633H7.11299V12.0733H10.1749V9.41343C10.1749 6.38755 11.9752 4.71615 14.7298 4.71615C16.0491 4.71615 17.4292 4.95195 17.4292 4.95195V7.92313H15.9086C14.4105 7.92313 13.9433 8.85379 13.9433 9.80857V12.0733H17.2879L16.7532 15.5633H13.9433V24C19.7084 23.0943 24.1182 18.0995 24.1182 12.0733Z" fill="#FCFCFC"/>
</g>
<defs>
<filter id="filter0_d" x="0" y="0" width="24.1182" height="26" filterUnits="userSpaceOnUse" color-interpolation-filters="sRGB">
<feFlood flood-opacity="0" result="BackgroundImageFix"/>
<feColorMatrix in="SourceAlpha" type="matrix" values="0 0 0 0 0 0 0 0 0 0 0 0 0 0 0 0 0 0 127 0"/>
<feOffset dy="2"/>
<feColorMatrix type="matrix" values="0 0 0 0 0 0 0 0 0 0 0 0 0 0 0 0 0 0 0.15 0"/>
<feBlend mode="normal" in2="BackgroundImageFix" result="effect1_dropShadow"/>
<feBlend mode="normal" in="SourceGraphic" in2="effect1_dropShadow" result="shape"/>
</filter>
</defs>
</svg>
