<svg fill="none" height="25" viewBox="0 0 25 25" width="25" xmlns="http://www.w3.org/2000/svg"><g clip-rule="evenodd" fill="#000" fill-rule="evenodd"><path d="m12.0015.0078125c-3.25946 0-3.66817.0138155-4.94824.0722219-1.27742.0582636-2.14984.2611606-2.91322.5578616-.7892.306657-1.45849.717024-2.12574 1.384224-.66719.66724-1.07756 1.33653-1.384217 2.12573-.2967.76338-.499598 1.63581-.5578611 2.91322-.0584064 1.28008-.0722219 1.68878-.0722219 4.94823 0 3.2593.0138155 3.668.0722219 4.9481.0582631 1.2774.2611611 2.1499.5578611 2.9132.306657.7892.717027 1.4585 1.384217 2.1258.66725.6672 1.33654 1.0775 2.12574 1.3842.76338.2967 1.6358.4996 2.91322.5578 1.28007.0585 1.68878.0723 4.94824.0723 3.2593 0 3.668-.0138 4.9481-.0723 1.2774-.0582 2.1498-.2611 2.9132-.5578.7892-.3067 1.4585-.717 2.1258-1.3842.6671-.6673 1.0775-1.3366 1.3842-2.1258.2967-.7633.4996-1.6358.5578-2.9132.0584-1.2801.0723-1.6888.0723-4.9481 0-3.25945-.0139-3.66815-.0723-4.94823-.0582-1.27741-.2611-2.14984-.5578-2.91322-.3067-.7892-.7171-1.45849-1.3842-2.12573-.6673-.6672-1.3366-1.077567-2.1258-1.384224-.7634-.296701-1.6358-.499598-2.9132-.5578616-1.2801-.0584064-1.6888-.0722219-4.9481-.0722219zm0 2.1624175c3.2044 0 3.584.01224 4.8495.06998 1.1702.05336 1.8056.24887 2.2285.41323.5602.21771.96.47778 1.38.89777.42.41994.68.81974.8977 1.37993.1644.4229.3599 1.05837.4133 2.22849.0577 1.26551.0699 1.6451.0699 4.84967 0 3.2045-.0122 3.584-.0699 4.8495-.0534 1.1702-.2489 1.8056-.4133 2.2285-.2177.5602-.4777.96-.8977 1.38s-.8198.68-1.38.8977c-.4229.1644-1.0583.3599-2.2285.4133-1.2653.0577-1.6448.07-4.8495.07-3.20482 0-3.58432-.0123-4.84968-.07-1.17013-.0534-1.80559-.2489-2.22849-.4133-.5602-.2177-.95999-.4777-1.37993-.8977-.41995-.42-.68006-.8198-.89777-1.38-.16436-.4229-.35987-1.0583-.41323-2.2285-.05774-1.2655-.06998-1.645-.06998-4.8495 0-3.20457.01224-3.58416.06998-4.84967.05336-1.17012.24887-1.80559.41323-2.22849.21771-.56019.47777-.95999.89777-1.37993.41994-.41999.81973-.68006 1.37993-.89777.4229-.16436 1.05836-.35987 2.22849-.41323 1.2655-.05774 1.6451-.06998 4.84968-.06998z"/><path d="m12.0014 16.0096c-2.20942 0-4.00048-1.7911-4.00048-4.0005 0-2.20943 1.79106-4.00049 4.00048-4.00049 2.2094 0 4.0005 1.79106 4.0005 4.00049 0 2.2094-1.7911 4.0005-4.0005 4.0005zm0-10.16341c-3.4037 0-6.1629 2.7592-6.1629 6.16291 0 3.4037 2.7592 6.1629 6.1629 6.1629s6.1629-2.7592 6.1629-6.1629c0-3.40371-2.7592-6.16291-6.1629-6.16291z"/><path d="m19.848 5.60279c0 .7954-.6448 1.44015-1.4402 1.44015-.7953 0-1.4401-.64475-1.4401-1.44015 0-.79539.6448-1.44019 1.4401-1.44019.7954 0 1.4402.6448 1.4402 1.44019z"/></g></svg>