<svg fill="none" height="24" viewBox="0 0 56 24" width="56" xmlns="http://www.w3.org/2000/svg"><path d="m2.66894 12.4518c-.11812 0-.21507.095-.22995.2261l-.54425 4.9624.54425 4.8528c.01488.1288.11183.2238.22995.2238.11611 0 .21106-.0927.22994-.2238l.61604-4.8528-.61604-4.9647c-.01916-.1308-.11411-.2238-.22994-.2238zm-2.042317 1.9021c-.116116 0-.206777.0887-.221649.2152l-.404974 3.0712.404974 3.0166c.014872.1262.105533.2152.221649.2152.111825 0 .202486-.089.221362-.2152l.476755-3.0166-.476755-3.0712c-.018876-.1268-.109537-.2152-.221362-.2152zm4.211037-2.875c-.14557 0-.26168.1139-.27656.2721l-.51479 5.8893.51479 5.6718c.01488.1585.13099.2721.27656.2721.14329 0 .2594-.1136.27857-.2698l.58429-5.6741-.58429-5.8893c-.01917-.1582-.13528-.2721-.27857-.2721zm2.18761-.2069c-.17103 0-.31003.1371-.3229.3188l-.48734 6.0498.48734 5.8535c.01259.1814.15187.3182.3229.3182.17102 0 .31002-.1371.32489-.3182l.55312-5.8535-.55312-6.0518c-.01459-.1797-.15387-.3168-.32489-.3168zm2.57598.7535c-.01258-.2069-.17274-.3632-.36922-.3632-.20049 0-.35864.1563-.37123.3675l-.45988 5.6105.45988 5.9019c.01259.2086.17103.3674.37123.3674.19648 0 .35664-.1588.36922-.3674l.52335-5.9019zm1.85475-3.9283c-.2237 0-.4073.18141-.4179.41577l-.4324 9.13163.4324 5.8996c.0106.2303.1942.4137.4179.4137.2193 0 .4029-.1842.4175-.416v.0023l.4874-5.8996-.4874-9.13363c-.0149-.23207-.1982-.41377-.4175-.41377zm2.2064-2.10464c-.2511 0-.4556.20488-.4661.46242l-.403 11.22142.403 5.8638c.0105.2555.215.4598.4661.4598.2468 0 .4536-.2046.4642-.4621v.0023l.4579-5.8638-.4579-11.22142c-.0106-.25754-.2171-.46242-.4642-.46242zm2.2935-1.01297c-.2786 0-.5043.22377-.5126.51078l-.3778 12.15623.3778 5.8023c.0083.2827.2343.5067.5126.5067.2742 0 .4999-.2237.5105-.5084v.0045l.4238-5.8051-.4238-12.15623c-.0106-.28701-.2363-.51078-.5105-.51078zm2.8353.1013c-.0105-.31248-.2554-.55743-.5591-.55743-.306 0-.5528.24495-.5591.55743l-.3501 12.56601.3501 5.7688c.0039.3063.2529.5528.5591.5534.3037 0 .5486-.2447.5591-.5571l.3924-5.7648zm1.7343-.28301c-.3311 0-.5991.26612-.6054.60378l-.3209 12.24494.3209 5.7141c.0063.3357.2743.6021.6054.6021.3312 0 .5972-.2664.6078-.6058v.006l.3586-5.7161-.3586-12.24495c-.0109-.33795-.2766-.60407-.6078-.60407zm2.3123.40119c-.3586 0-.6455.287-.654.65213l-.2912 11.7971.2929 5.6764c.0063.3611.2931.6481.6518.6481.3586 0 .6477-.287.654-.6521v.0046l.3289-5.6761-.3289-11.79943c-.0022-.35969-.294-.65024-.6535-.6507zm2.7173-2.17017c-.1143-.07643-.2486-.11753-.3861-.11818-.1393 0-.27.04207-.3798.11389-.1976.1292-.318.34841-.3209.5846l-.0043.13306-.2617 13.90373c0 .0083.2657 5.6426.2657 5.6426v.0229c.0086.1588.0675.3039.1648.4181.1314.1612.328.2551.5359.2561.1899 0 .363-.0804.4894-.2072.1264-.1267.2067-.2999.211-.4922l.0295-.5594.266-5.0786-.2955-14.03909c-.0045-.23292-.1215-.44922-.314-.58031zm2.314-1.32974c-.2681-.16426-.6111-.13868-.852.06353-.1726.1409-.2738.35116-.2762.57401l-.002.07812-.3055 15.23608.1562 2.816.1518 2.7419c.0043.4052.3398.7411.7465.7411.4075 0 .743-.3359.749-.7471v.006l.3312-5.5579-.3312-15.3142c-.0049-.26164-.1438-.50241-.3678-.63754zm20.5747 8.70324c-.9306 0-1.8186.1877-2.6286.5277-.5402-6.12564-5.6753-10.9301-11.9367-10.9301-1.4867.00168928-2.9605.276466-4.348.810664-.5128.198306-.6478.403186-.6538.800076v21.57486c.006.4158.3283.7389.7339.7789.0168.0023 18.8335 0 18.8335 0 3.7532 0 6.7936-3.008 6.7936-6.7631-.0002-3.7552-3.0407-6.799-6.7939-6.799z" fill="#000"/></svg>