<svg fill="none" height="24" viewBox="0 0 24 24" width="24" xmlns="http://www.w3.org/2000/svg"><path clip-rule="evenodd" d="m19.08 10.6389c-3.8563-2.29013-10.21717-2.5007-13.89845-1.38341-.59129.17943-1.21643-.15429-1.39557-.74543-.17915-.59157.15428-1.21628.74585-1.396 4.22586-1.28271 11.25087-1.035 15.69027 1.60029.5317.31571.7062 1.00242.391 1.53325-.3154.5317-1.0027.707-1.5331.3913zm-.1263 3.392c-.2706.439-.8446.5767-1.283.3072-3.215-1.9762-8.11744-2.5488-11.92101-1.3942-.49328.149-1.01414-.129-1.164-.6214-.14857-.4932.12957-1.0132.622-1.1632 4.345-1.31853 9.74661-.68 13.43911 1.5893.4385.27.5765.8443.3069 1.2823zm-1.4639 3.2576c-.215.3526-.674.463-1.0253.2481-2.8092-1.717-6.3452-2.1047-10.50952-1.1535-.40129.092-.80129-.1595-.89286-.5608-.09186-.4011.15871-.8011.56086-.8927 4.55712-1.0417 8.46612-.5934 11.61942 1.3335.3516.2147.4623.674.2474 1.0254zm-5.4865-17.2552969c-6.60704 0-11.963322 5.3561469-11.963322 11.9630969 0 6.6078 5.356282 11.9635 11.963322 11.9635 6.6072 0 11.9632-5.3557 11.9632-11.9635 0-6.60695-5.356-11.9630969-11.9632-11.9630969z" fill="#fff"/></svg>