<svg fill="none" height="24" viewBox="0 0 30 25" width="30" xmlns="http://www.w3.org/2000/svg"><path d="m9.26287 24.0078c11.11493 0 17.19443-9.2343 17.19443-17.24226 0-.26228 0-.52338-.0177-.78331 1.1827-.85784 2.2036-1.92002 3.0149-3.13678-1.1029.49007-2.2729.81146-3.4709.95344 1.2616-.75734 2.2057-1.9485 2.6568-3.351809-1.1862.705869-2.484 1.203339-3.8373 1.470919-.9112-.971533-2.1162-1.614859-3.4287-1.8304231-1.3125-.2155639-2.6592.0086521-3.8318.6379511-1.1726.629302-2.1057 1.628602-2.6549 2.843262s-.6838 2.57696-.3831 3.87609c-2.4026-.12078-4.75303-.74688-6.89868-1.83765-2.14566-1.09078-4.03858-2.62184-5.55588-4.4938-.77278 1.33406-1.00947 2.91332-.66187 4.41623.34759 1.50291 1.25334 2.81648 2.53282 3.67324-.9617-.02858-1.90244-.28873-2.74281-.7585v.0768c.00038 1.39911.48336 2.755 1.36703 3.8377.88366 1.0828 2.11359 1.8257 3.48119 2.1027-.88968.2433-1.82314.2789-2.72867.104.38616 1.2041 1.13797 2.257 2.15027 3.0116s2.23447 1.173 3.49558 1.1967c-2.13989 1.6865-4.78335 2.602-7.50502 2.5993-.480812-.001-.961156-.0302-1.43856-.0875 2.76359 1.7784 5.97917 2.7218 9.26287 2.7174" fill="#000"/></svg>