<svg fill="none" height="25" viewBox="0 0 36 25" width="36" xmlns="http://www.w3.org/2000/svg"><path clip-rule="evenodd" d="m31.3389.716747c1.4662.394383 2.6207 1.556443 3.0125 3.032143.7121 2.67454.7121 8.25501.7121 8.25501s0 5.5802-.7121 8.2552c-.3918 1.4755-1.5463 2.6375-3.0125 3.0321-2.6573.7165-13.3131.7165-13.3131.7165s-10.65577 0-13.31308-.7165c-1.46602-.3946-2.62071-1.5566-3.01258-3.0321-.712103-2.675-.712103-8.2552-.712103-8.2552s0-5.58047.712103-8.25501c.39187-1.4757 1.54656-2.63776 3.01258-3.032143 2.65731-.716747 13.31308-.716747 13.31308-.716747s10.6558 0 13.3131.716747zm-7.8917 11.287553-8.9061 5.0664v-10.1332z" fill="#fff" fill-rule="evenodd"/></svg>