<svg fill="none" height="24" viewBox="0 0 36 24" width="36" xmlns="http://www.w3.org/2000/svg"><path d="m5.95811 0h.07447c.56807.651668 1.21025 1.22886 1.81537 1.8526l4.11485 4.11482v.07447c-1.99209 1.98294-3.97521 3.98451-5.96745 5.96741-2.00156-1.9922-3.9938-3.99378-5.99535-5.98603.102591-.1955.297905-.32583.446858-.48409 1.833982-1.8526 3.695892-3.67727 5.511252-5.53918zm12.00929 0h.0745c.056.0837859.1117.158262.1862.232739 1.9271 1.908451 3.8264 3.844841 5.7719 5.743991-.0465.11171-.149.18619-.2327.26997-1.9269 1.91777-3.8449 3.8448-5.772 5.7626-2.0108-1.9829-3.9844-4.00309-6.0046-5.97672 1.955-2.03879 4.0124-4.0031 5.9767-6.03258zm12.0093 0h.0745c.3724.446858.8099.828549 1.2102 1.24748 1.5082 1.50814 3.0072 3.00698 4.5152 4.51513.0746.08378.1957.15826.2234.27928-2.0202 1.96432-3.9752 4.00311-6.0047 5.96741l-5.7253-5.72536c-.0931-.1024-.2141-.17688-.2607-.30721 1.0148-.98682 2.0016-2.00156 3.007-2.99768.9868-.99612 1.9922-1.96431 2.9604-2.97905zm-17.9022 17.9209c1.9643-1.9643 3.9379-3.9287 5.9022-5.9023l.0836.0373c1.9737 1.9829 3.9473 3.9658 5.9395 5.9301-.065.149-.2046.2328-.3072.3538-1.4335 1.4244-2.8673 2.8673-4.301 4.2917-.4655.4469-.9123.9496-1.3869 1.3685-.6796-.6144-1.3034-1.3033-1.9645-1.9364-1.3404-1.3406-2.6717-2.6811-4.0216-4.0124.0186-.0372.0373-.0931.0559-.1303z" fill="#fff"/></svg>