<svg width="34" height="28" viewBox="0 0 34 28" fill="none" xmlns="http://www.w3.org/2000/svg">
<g filter="url(#filter0_d)">
<path d="M11.2629 24C22.3778 24 28.4573 14.7657 28.4573 6.75773C28.4573 6.49545 28.4573 6.23434 28.4396 5.97442C29.6223 5.11658 30.6432 4.0544 31.4545 2.83764C30.3516 3.32771 29.1816 3.6491 27.9836 3.79108C29.2452 3.03374 30.1893 1.84258 30.6404 0.439268C29.4542 1.14514 28.1564 1.6426 26.8031 1.91019C25.8919 0.938654 24.6869 0.295328 23.3744 0.0797644C22.0619 -0.135799 20.7152 0.0884165 19.5426 0.717716C18.37 1.34702 17.4369 2.34631 16.8877 3.56097C16.3385 4.77563 16.2039 6.13794 16.5046 7.43707C14.102 7.31629 11.7516 6.69019 9.60592 5.59941C7.46026 4.50864 5.56734 2.97757 4.05004 1.10561C3.27726 2.43968 3.04057 4.01894 3.38817 5.52185C3.73576 7.02476 4.64151 8.33832 5.92099 9.19509C4.95929 9.16651 4.01855 8.90636 3.17818 8.43659C3.17818 8.4614 3.17818 8.48739 3.17818 8.51338C3.17856 9.91249 3.66154 11.2684 4.54521 12.3511C5.42887 13.4339 6.6588 14.1767 8.0264 14.4538C7.13672 14.6971 6.20326 14.7327 5.29773 14.5577C5.68389 15.7619 6.4357 16.8148 7.448 17.5694C8.4603 18.324 9.68247 18.7424 10.9436 18.7661C8.80369 20.4526 6.16023 21.3681 3.43856 21.3653C2.95775 21.3644 2.4774 21.3352 2 21.2779C4.76359 23.0563 7.97917 23.9997 11.2629 23.9953" fill="#FCFCFC"/>
</g>
<defs>
<filter id="filter0_d" x="0" y="0" width="33.4545" height="28" filterUnits="userSpaceOnUse" color-interpolation-filters="sRGB">
<feFlood flood-opacity="0" result="BackgroundImageFix"/>
<feColorMatrix in="SourceAlpha" type="matrix" values="0 0 0 0 0 0 0 0 0 0 0 0 0 0 0 0 0 0 127 0"/>
<feOffset dy="2"/>
<feGaussianBlur stdDeviation="1"/>
<feColorMatrix type="matrix" values="0 0 0 0 0 0 0 0 0 0 0 0 0 0 0 0 0 0 0.25 0"/>
<feBlend mode="normal" in2="BackgroundImageFix" result="effect1_dropShadow"/>
<feBlend mode="normal" in="SourceGraphic" in2="effect1_dropShadow" result="shape"/>
</filter>
</defs>
</svg>
