<svg fill="none" height="24" viewBox="0 0 30 24" width="30" xmlns="http://www.w3.org/2000/svg"><path d="m9.26287 24.0081c11.11493 0 17.19443-9.2344 17.19443-17.24231 0-.26229 0-.52339-.0177-.78331 1.1827-.85785 2.2036-1.92002 3.0149-3.13679-1.1029.49008-2.2729.81147-3.4709.95344 1.2616-.75733 2.2057-1.9485 2.6568-3.351805-1.1862.705875-2.484 1.203335-3.8373 1.470925-.9112-.971539-2.1162-1.614865-3.4287-1.8304289-1.3125-.2155641-2.6592.008652-3.8318.6379509-1.1726.629298-2.1057 1.628598-2.6549 2.843258s-.6838 2.57696-.3831 3.8761c-2.4026-.12078-4.75303-.74688-6.89868-1.83766-2.14566-1.09077-4.03858-2.62184-5.55588-4.4938-.77278 1.33406-1.00947 2.91332-.66187 4.41624.34759 1.50291 1.25334 2.81647 2.53282 3.67324-.9617-.02859-1.90244-.28874-2.74281-.7585v.07679c.00038 1.39911.48336 2.75506 1.36703 3.83776.88366 1.0827 2.11359 1.8256 3.48119 2.1026-.88968.2433-1.82314.2789-2.72867.104.38616 1.2041 1.13797 2.2571 2.15027 3.0116 1.0123.7546 2.23447 1.173 3.49558 1.1968-2.13989 1.6864-4.78335 2.6019-7.50502 2.5992-.480812-.0009-.961156-.0301-1.43856-.0874 2.76359 1.7784 5.97917 2.7217 9.26287 2.7173" fill="#fff"/></svg>