<svg fill="none" height="24" viewBox="0 0 24 24" width="24" xmlns="http://www.w3.org/2000/svg"><path clip-rule="evenodd" d="m19.0799 10.6389c-3.8563-2.29013-10.21713-2.5007-13.89841-1.38341-.59129.17943-1.21643-.15429-1.39557-.74543-.17915-.59157.15428-1.21628.74585-1.396 4.22586-1.28271 11.25083-1.035 15.69033 1.60029.5317.31571.7061 1.00242.391 1.53325-.3155.5317-1.0028.707-1.5332.3913zm-.1263 3.392c-.2705.439-.8445.5767-1.283.3072-3.215-1.9762-8.1174-2.5488-11.92097-1.3942-.49329.149-1.01414-.129-1.164-.6214-.14857-.4932.12957-1.0132.622-1.1632 4.345-1.31853 9.74657-.68 13.43917 1.5893.4384.27.5764.8443.3068 1.2823zm-1.4638 3.2576c-.215.3526-.674.463-1.0253.2481-2.8093-1.717-6.3453-2.1047-10.50958-1.1535-.40129.092-.80129-.1595-.89286-.5608-.09186-.4011.15871-.8011.56086-.8927 4.55718-1.0417 8.46618-.5934 11.61938 1.3335.3516.2147.4623.674.2475 1.0254zm-5.4866-17.2552969c-6.607 0-11.963283 5.3561469-11.963283 11.9630969 0 6.6078 5.356283 11.9635 11.963283 11.9635 6.6073 0 11.9633-5.3557 11.9633-11.9635 0-6.60695-5.356-11.9630969-11.9633-11.9630969z" fill="#fff" fill-rule="evenodd"/></svg>