<svg height="1077" viewBox="0 0 2480 1077" width="2480" xmlns="http://www.w3.org/2000/svg"><path d="m120.346598 559.409499c-5.301669 0-9.653402 4.261875-10.320924 10.141207l-24.4287549 222.618742 24.4287549 217.702182c.667522 5.77664 5.019255 10.03851 10.320924 10.03851 5.21181 0 9.473684-4.15918 10.320924-10.03851l27.650835-217.702182-27.650835-222.721438c-.860077-5.866495-5.121951-10.038511-10.320924-10.038511zm-91.668806 85.327343c-5.21181 0-9.2811296 3.979461-9.9486521 9.653402l-18.17715017 137.779204 18.17715017 135.327343c.6675225 5.661104 4.7368421 9.653402 9.9486521 9.653402 5.0192555 0 9.0885751-3.992298 9.9358152-9.653402l21.3992298-135.327343-21.3992298-137.779204c-.8472401-5.686778-4.9165597-9.653402-9.9358152-9.653402zm189.011553-128.973042c-6.534018 0-11.745828 5.109114-12.41335 12.207959l-23.106547 264.197689 23.106547 254.441592c.667522 7.11168 5.879332 12.20796 12.41335 12.20796 6.431323 0 11.643133-5.09628 12.50321-12.10526l26.22593-254.544292-26.22593-264.197689c-.860077-7.098845-6.071887-12.207959-12.50321-12.207959zm98.189987-9.28113c-7.676508 0-13.915276 6.148909-14.492939 14.300385l-21.874198 271.39923 21.874198 262.593065c.564827 8.13864 6.816431 14.27471 14.492939 14.27471 7.676509 0 13.915276-6.1489 14.582799-14.27471l24.826701-262.593065-24.826701-271.489089c-.654686-8.061617-6.90629-14.210526-14.582799-14.210526zm115.622594 33.799743c-.564827-9.281129-7.753531-16.290115-16.572529-16.290115-8.998717 0-16.097561 7.008986-16.662388 16.48267l-20.641849 251.69448 20.641849 264.762512c.564827 9.35816 7.676508 16.48267 16.662388 16.48267 8.818998 0 16.007702-7.12451 16.572529-16.48267l23.491656-264.762512zm83.247753-176.22593c-10.038511 0-18.279846 8.138639-18.754814 18.652118l-19.409499 409.653402 19.409499 264.659817c.474968 10.33376 8.716303 18.56226 18.754814 18.56226 9.845956 0 18.087291-8.26701 18.741977-18.66495v.10269l21.874198-264.659817-21.874198-409.743261c-.667522-10.410783-8.896021-18.562259-18.741977-18.562259zm99.037227-94.415918c-11.27086 0-20.449294 9.191271-20.924262 20.744544l-18.087291 503.401797 18.087291 263.055204c.474968 11.46341 9.653402 20.62901 20.924262 20.62901 11.078306 0 20.359435-9.17844 20.834403-20.73171v.1027l20.55199-263.055204-20.55199-503.401797c-.474968-11.553273-9.74326-20.744544-20.834403-20.744544zm102.939667-45.442876c-12.50321 0-22.631579 10.038511-23.003852 22.913993l-16.957638 545.340179 16.957638 260.295249c.372273 12.68293 10.513479 22.73428 23.003852 22.73428 12.310654 0 22.439024-10.03851 22.913992-22.8113v.20539l19.02439-260.423619-19.02439-545.340179c-.474968-12.875482-10.603338-22.913993-22.913992-22.913993zm127.265725 4.544288c-.474968-14.017972-11.463415-25.006419-25.096277-25.006419-13.735559 0-24.813864 10.988447-25.096278 25.006419l-15.712452 563.722721 15.712452 258.793322c.175373 13.74319 11.352001 24.79976 25.096278 24.8267 13.632862 0 24.621309-10.97561 25.096277-24.99358l17.612323-258.613605zm77.843389-12.695764c-14.865212 0-26.893453 11.938383-27.175867 27.086008l-14.403081 549.31964 14.403081 256.341459c.282414 15.05777 12.310655 27.00899 27.175867 27.00899s26.803594-11.95122 27.278562-27.17587v.26958l16.097561-256.431322-16.097561-549.31964c-.487805-15.160462-12.41335-27.098845-27.278562-27.098845zm103.786903 17.997433c-16.09756 0-28.973039 12.875481-29.358148 29.255455l-13.068036 529.229782 13.145057 254.646987c.282414 16.20025 13.157897 29.07573 29.255457 29.07573s29.07574-12.87548 29.35815-29.25545v.20539l14.76252-254.634146-14.76252-529.332477c-.09872-16.135913-13.19628-29.170416-29.33248-29.191271zm121.96406-97.355584c-5.13164-3.428635-11.15833-5.272354-17.32991-5.301669-6.25161 0-12.1181 1.887034-17.0475 5.109114-8.87108 5.795891-14.27196 15.630114-14.40308 26.225931l-.19255 5.969191-11.74583 623.735558c0 .372273 11.92554 253.132223 11.92554 253.132223v1.02696c.38511 7.12451 3.02953 13.63286 7.3941 18.75481 5.89951 7.23158 14.72385 11.44598 24.05648 11.48909 8.52375 0 16.29012-3.60719 21.96406-9.29397s9.28113-13.45314 9.47368-22.07959l1.32221-25.09627 11.93838-227.830557-13.26059-629.807445c-.202-10.449158-5.45554-20.152419-14.09499-26.033376zm103.86393-59.6534022c-12.03448-7.3689397-27.43201-6.2214903-38.24134 2.8498075-7.74645 6.3209895-12.28871 15.7534653-12.40051 25.7509627l-.08986 3.504493-13.70988 683.504493 7.00898 126.328626 6.81643 123.003848c.19256 18.17715 15.25032 33.24776 33.5045 33.24776 18.29268 0 33.35045-15.07061 33.62002-33.51733v.26957l14.86521-249.332474-14.86521-687.008986c-.2204-11.7375298-6.45492-22.538851-16.50834-28.6007702zm923.49165 390.4364572c-41.7715 0-81.63029 8.421052-117.98459 23.671373-24.24904-274.801027-254.73684-490.33376086-535.77664-490.33376086-66.73099.07578261-132.88103 12.40249886-195.16046 36.36713736-23.01669 8.8960205-29.07574 18.0872914-29.34532 35.8921694v967.8690641c.26958 18.65212 14.73685 33.14506 32.93967 34.94223.75738.1027 845.34018 0 845.34018 0 168.45956 0 304.9294-134.942231 304.9294-303.401795-.01284-168.459563-136.48267-305.006418-304.94224-305.006418z" fill="#666" transform="translate(.109114 -.575096)"/></svg>