<?xml version="1.0" encoding="UTF-8"?>
<svg width="2480px" height="1077px" viewBox="0 0 2480 1077" version="1.1" xmlns="http://www.w3.org/2000/svg" xmlns:xlink="http://www.w3.org/1999/xlink">
    <!-- Generator: Sketch 56.2 (81672) - https://sketch.com -->
    <title>soundcloud-1</title>
    <desc>Created with Sketch.</desc>
    <g id="Page-1" stroke="none" stroke-width="1" fill="none" fill-rule="evenodd">
        <g id="soundcloud-1" transform="translate(0.109114, -0.575096)" fill="#666666" fill-rule="nonzero">
            <path d="M120.346598,559.409499 C115.044929,559.409499 110.693196,563.671374 110.025674,569.550706 L85.5969191,792.169448 L110.025674,1009.87163 C110.693196,1015.64827 115.044929,1019.91014 120.346598,1019.91014 C125.558408,1019.91014 129.820282,1015.75096 130.667522,1009.87163 L158.318357,792.169448 L130.667522,569.44801 C129.807445,563.581515 125.545571,559.409499 120.346598,559.409499 L120.346598,559.409499 Z M28.677792,644.736842 C23.465982,644.736842 19.3966624,648.716303 18.7291399,654.390244 L0.55198973,792.169448 L18.7291399,927.496791 C19.3966624,933.157895 23.465982,937.150193 28.677792,937.150193 C33.6970475,937.150193 37.7663671,933.157895 38.6136072,927.496791 L60.012837,792.169448 L38.6136072,654.390244 C37.7663671,648.703466 33.6970475,644.736842 28.677792,644.736842 L28.677792,644.736842 Z M217.689345,515.7638 C211.155327,515.7638 205.943517,520.872914 205.275995,527.971759 L182.169448,792.169448 L205.275995,1046.61104 C205.943517,1053.72272 211.155327,1058.819 217.689345,1058.819 C224.120668,1058.819 229.332478,1053.72272 230.192555,1046.71374 L256.418485,792.169448 L230.192555,527.971759 C229.332478,520.872914 224.120668,515.7638 217.689345,515.7638 L217.689345,515.7638 Z M315.879332,506.48267 C308.202824,506.48267 301.964056,512.631579 301.386393,520.783055 L279.512195,792.182285 L301.386393,1054.77535 C301.95122,1062.91399 308.202824,1069.05006 315.879332,1069.05006 C323.555841,1069.05006 329.794608,1062.90116 330.462131,1054.77535 L355.288832,792.182285 L330.462131,520.693196 C329.807445,512.631579 323.555841,506.48267 315.879332,506.48267 L315.879332,506.48267 Z M431.501926,540.282413 C430.937099,531.001284 423.748395,523.992298 414.929397,523.992298 C405.93068,523.992298 398.831836,531.001284 398.267009,540.474968 L377.62516,792.169448 L398.267009,1056.93196 C398.831836,1066.29012 405.943517,1073.41463 414.929397,1073.41463 C423.748395,1073.41463 430.937099,1066.29012 431.501926,1056.93196 L454.993582,792.169448 L431.501926,540.282413 L431.501926,540.282413 Z M514.749679,364.056483 C504.711168,364.056483 496.469833,372.195122 495.994865,382.708601 L476.585366,792.362003 L495.994865,1057.02182 C496.469833,1067.35558 504.711168,1075.58408 514.749679,1075.58408 C524.595635,1075.58408 532.83697,1067.31707 533.491656,1056.91913 L533.491656,1057.02182 L555.365854,792.362003 L533.491656,382.618742 C532.824134,372.207959 524.595635,364.056483 514.749679,364.056483 Z M613.786906,269.640565 C602.516046,269.640565 593.337612,278.831836 592.862644,290.385109 L574.775353,793.786906 L592.862644,1056.84211 C593.337612,1068.30552 602.516046,1077.47112 613.786906,1077.47112 C624.865212,1077.47112 634.146341,1068.29268 634.621309,1056.73941 L634.621309,1056.84211 L655.173299,793.786906 L634.621309,290.385109 C634.146341,278.831836 624.878049,269.640565 613.786906,269.640565 L613.786906,269.640565 Z M716.726573,224.197689 C704.223363,224.197689 694.094994,234.2362 693.722721,247.111682 L676.765083,792.451861 L693.722721,1052.74711 C694.094994,1065.43004 704.2362,1075.48139 716.726573,1075.48139 C729.037227,1075.48139 739.165597,1065.44288 739.640565,1052.67009 L739.640565,1052.87548 L758.664955,792.451861 L739.640565,247.111682 C739.165597,234.2362 729.037227,224.197689 716.726573,224.197689 Z M843.992298,228.741977 C843.51733,214.724005 832.528883,203.735558 818.896021,203.735558 C805.160462,203.735558 794.082157,214.724005 793.799743,228.741977 L778.087291,792.464698 L793.799743,1051.25802 C793.975116,1065.00121 805.151744,1076.05778 818.896021,1076.08472 C832.528883,1076.08472 843.51733,1065.10911 843.992298,1051.09114 L861.604621,792.477535 L843.992298,228.741977 L843.992298,228.741977 Z M921.835687,216.046213 C906.970475,216.046213 894.942234,227.984596 894.65982,243.132221 L880.256739,792.451861 L894.65982,1048.79332 C894.942234,1063.85109 906.970475,1075.80231 921.835687,1075.80231 C936.700899,1075.80231 948.639281,1063.85109 949.114249,1048.62644 L949.114249,1048.89602 L965.21181,792.464698 L949.114249,243.145058 C948.626444,227.984596 936.700899,216.046213 921.835687,216.046213 Z M1025.62259,234.043646 C1009.52503,234.043646 996.649551,246.919127 996.264442,263.299101 L983.196406,792.528883 L996.341463,1047.17587 C996.623877,1063.37612 1009.49936,1076.2516 1025.59692,1076.2516 C1041.69448,1076.2516 1054.67266,1063.37612 1054.95507,1046.99615 L1054.95507,1047.20154 L1069.71759,792.567394 L1054.95507,263.234917 C1054.85635,247.099004 1041.75879,234.064501 1025.62259,234.043646 L1025.62259,234.043646 Z M1147.58665,136.688062 C1142.45501,133.259427 1136.42832,131.415708 1130.25674,131.386393 C1124.00513,131.386393 1118.13864,133.273427 1113.20924,136.495507 C1104.33816,142.291398 1098.93728,152.125621 1098.80616,162.721438 L1098.61361,168.690629 L1086.86778,792.426187 C1086.86778,792.79846 1098.79332,1045.55841 1098.79332,1045.55841 L1098.79332,1046.58537 C1099.17843,1053.70988 1101.82285,1060.21823 1106.18742,1065.34018 C1112.08693,1072.57176 1120.91127,1076.78616 1130.2439,1076.82927 C1138.76765,1076.82927 1146.53402,1073.22208 1152.20796,1067.5353 C1157.8819,1061.84852 1161.48909,1054.08216 1161.68164,1045.45571 L1163.00385,1020.35944 L1174.94223,792.528883 L1161.68164,162.721438 C1161.47964,152.27228 1156.2261,142.569019 1147.58665,136.688062 L1147.58665,136.688062 Z M1251.45058,77.0346598 C1239.4161,69.6657201 1224.01857,70.8131695 1213.20924,79.8844673 C1205.46279,86.2054568 1200.92053,95.6379326 1200.80873,105.63543 L1200.71887,109.139923 L1187.00899,792.644416 L1194.01797,918.973042 L1200.8344,1041.97689 C1201.02696,1060.15404 1216.08472,1075.22465 1234.3389,1075.22465 C1252.63158,1075.22465 1267.68935,1060.15404 1267.95892,1041.70732 L1267.95892,1041.97689 L1282.82413,792.644416 L1267.95892,105.63543 C1267.73852,93.8979002 1261.504,83.096579 1251.45058,77.0346598 L1251.45058,77.0346598 Z M2174.94223,467.471117 C2133.17073,467.471117 2093.31194,475.892169 2056.95764,491.14249 C2032.7086,216.341463 1802.2208,0.80872914 1521.181,0.80872914 C1454.45001,0.884511745 1388.29997,13.211228 1326.02054,37.1758665 C1303.00385,46.071887 1296.9448,55.2631579 1296.67522,73.0680359 L1296.67522,1040.9371 C1296.9448,1059.58922 1311.41207,1074.08216 1329.61489,1075.87933 C1330.37227,1075.98203 2174.95507,1075.87933 2174.95507,1075.87933 C2343.41463,1075.87933 2479.88447,940.937099 2479.88447,772.477535 C2479.87163,604.017972 2343.4018,467.471117 2174.94223,467.471117 Z" id="Shape"></path>
        </g>
    </g>
</svg>