<svg height="445" viewBox="0 0 667 445" width="667" xmlns="http://www.w3.org/2000/svg"><path d="m110.841019 0h1.376462c10.498968 12.0440468 22.367516 22.7116311 33.551273 34.2395045l76.049553 76.0495525v1.376463c-36.816931 36.648313-73.468686 73.640743-110.289057 110.289057-36.9924296-36.820372-73.8128013-73.812801-110.80523073-110.633173 1.89607708-3.613214 5.50584997-6.022023 8.25877495-8.947006 33.89538888-34.2395047 68.30695118-67.9628357 101.85822478-102.374398zm221.954576 0h1.376463c1.035788 1.5485203 2.064694 2.92498279 3.441156 4.30144529 35.615967 35.27185131 70.719202 71.05987611 106.675843 106.15966971-.860289 2.064694-2.752925 3.441156-4.301445 4.989676-35.612526 35.44391-71.059876 71.059877-106.675843 106.503786-37.164488-36.648314-73.640744-73.984859-110.977289-110.461115 36.132141-37.6806609 74.156917-73.9848591 110.461115-111.493462zm221.954577 0h1.376463c6.882312 8.25877495 14.969029 15.3131452 22.367515 23.0557467 27.873365 27.8733655 55.578114 55.5746731 83.448039 83.4480383 1.379903 1.548521 3.616655 2.924983 4.129387 5.161735-37.336545 36.304198-73.468685 73.984859-110.977288 110.289057l-105.815554-105.815554c-1.720578-1.892636-3.95733-3.269099-4.817619-5.677908 18.754301-18.2381281 36.992429-36.9924295 55.574673-55.4026153 18.238128-18.4101859 36.820372-36.3041983 54.714384-55.0584997zm-330.867171 331.211287c36.304198-36.304198 72.780454-72.608396 109.084652-109.084652l1.545079.688231c36.476256 36.648314 72.952512 73.296627 109.772884 109.600826-1.200964 2.752925-3.781831 4.301445-5.677908 6.538197-26.493462 26.324845-52.993806 52.993805-79.490709 79.318651-8.60289 8.258775-16.861665 17.549896-25.633172 25.292498-12.560221-11.355816-24.088094-24.088094-36.30764-35.788025-24.772883-24.776325-49.377151-49.55265-74.325533-74.156917.344115-.688231.688231-1.720578 1.032347-2.408809z" stroke="#000" stroke-width=".5" transform="translate(0 1)"/></svg>