<svg height="124" viewBox="0 0 176 124" width="176" xmlns="http://www.w3.org/2000/svg" xmlns:xlink="http://www.w3.org/1999/xlink"><mask id="a" fill="#fff"><path d="m.06.04h175.94v123.96h-175.94z" fill="#fff" fill-rule="evenodd"/></mask><g fill="none" fill-rule="evenodd"><path d="m172.322 19.363c-2.024-7.622-7.987-13.624-15.56-15.661-13.725-3.702-68.762-3.702-68.762-3.702s-55.037 0-68.762 3.702c-7.572 2.037-13.536 8.039-15.56 15.661-3.678 13.814-3.678 42.637-3.678 42.637s0 28.822 3.678 42.638c2.024 7.621 7.988 13.623 15.56 15.661 13.725 3.701 68.762 3.701 68.762 3.701s55.037 0 68.762-3.701c7.573-2.038 13.536-8.04 15.56-15.661 3.678-13.816 3.678-42.638 3.678-42.638s0-28.823-3.678-42.637" fill="#222321" mask="url(#a)"/><path d="m70 88.169 46-26.168-46-26.17z" fill="#fffffe"/></g></svg>